# xmcd CD database file
#
# Track frame offsets:
#	150
#	20132
#	32498
#	49597
#	67929
#	84078
#	105312
#	121530
#	142384
#	156394
#	167283
#	186869
#	199911
#	209431
#	229118
#	252553
#
# Disc length: 3623 seconds
#
# Revision: 0
# Processed by: cddbd v1.5.2PL0 Copyright (c) Steve Scherf et al.
# Submitted via: CDex 1.70beta2
#
DISCID=d40e2510
DTITLE=Jörg Hegemann Quartett and Peter B. Reber - Eight to the bar
DYEAR=2002
DGENRE=Jazz
TTITLE0=Dark Groove Runner
TTITLE1=Jumping Jay
TTITLE2=From Ammons To Johnson
TTITLE3=Dreamland Of Boogie
TTITLE4=Sixth Avenue Express
TTITLE5=Paulis Stomp
TTITLE6=Pinetop's Boogie
TTITLE7=Piney Brown Blues
TTITLE8=Shim Sham Shimmy
TTITLE9=Monday Struggle
TTITLE10=Long Distance Boogie Call
TTITLE11=Rolfs Honor Blues
TTITLE12=Movin' The Boogie
TTITLE13=Prime Time Boogie
TTITLE14=Dark Groove Runner II
TTITLE15=Boogie Woogie Country Girl
EXTD=YEAR: 2002
EXTT0=
EXTT1=
EXTT2=
EXTT3=
EXTT4=
EXTT5=
EXTT6=
EXTT7=
EXTT8=
EXTT9=
EXTT10=
EXTT11=
EXTT12=
EXTT13=
EXTT14=
EXTT15=
PLAYORDER=
